<svg id="my-svg" width="100%" xmlns="http://www.w3.org/2000/svg" xmlns:xlink="http://www.w3.org/1999/xlink" class="erDiagram" style="max-width: 713.922px; background-color: white;" viewBox="0 0 713.921875 816.5" role="graphics-document document" aria-roledescription="er"><style>#my-svg{font-family:"trebuchet ms",verdana,arial,sans-serif;font-size:16px;fill:#333;}@keyframes edge-animation-frame{from{stroke-dashoffset:0;}}@keyframes dash{to{stroke-dashoffset:0;}}#my-svg .edge-animation-slow{stroke-dasharray:9,5!important;stroke-dashoffset:900;animation:dash 50s linear infinite;stroke-linecap:round;}#my-svg .edge-animation-fast{stroke-dasharray:9,5!important;stroke-dashoffset:900;animation:dash 20s linear infinite;stroke-linecap:round;}#my-svg .error-icon{fill:#552222;}#my-svg .error-text{fill:#552222;stroke:#552222;}#my-svg .edge-thickness-normal{stroke-width:1px;}#my-svg .edge-thickness-thick{stroke-width:3.5px;}#my-svg .edge-pattern-solid{stroke-dasharray:0;}#my-svg .edge-thickness-invisible{stroke-width:0;fill:none;}#my-svg .edge-pattern-dashed{stroke-dasharray:3;}#my-svg .edge-pattern-dotted{stroke-dasharray:2;}#my-svg .marker{fill:#333333;stroke:#333333;}#my-svg .marker.cross{stroke:#333333;}#my-svg svg{font-family:"trebuchet ms",verdana,arial,sans-serif;font-size:16px;}#my-svg p{margin:0;}#my-svg .entityBox{fill:#ECECFF;stroke:#9370DB;}#my-svg .relationshipLabelBox{fill:hsl(80, 100%, 96.2745098039%);opacity:0.7;background-color:hsl(80, 100%, 96.2745098039%);}#my-svg .relationshipLabelBox rect{opacity:0.5;}#my-svg .labelBkg{background-color:rgba(248.6666666666, 255, 235.9999999999, 0.5);}#my-svg .edgeLabel{background-color:rgba(232,232,232, 0.8);}#my-svg .edgeLabel .label rect{fill:rgba(232,232,232, 0.8);}#my-svg .edgeLabel .label text{fill:#333;}#my-svg .edgeLabel .label{fill:#9370DB;font-size:14px;}#my-svg .label{font-family:"trebuchet ms",verdana,arial,sans-serif;color:#333;}#my-svg .edge-pattern-dashed{stroke-dasharray:8,8;}#my-svg .node rect,#my-svg .node circle,#my-svg .node ellipse,#my-svg .node polygon{fill:#ECECFF;stroke:#9370DB;stroke-width:1px;}#my-svg .relationshipLine{stroke:#333333;stroke-width:1px;fill:none;}#my-svg .marker{fill:none!important;stroke:#333333!important;stroke-width:1;}#my-svg [data-look=neo].labelBkg{background-color:rgba(248.6666666666, 255, 235.9999999999, 0.5);}#my-svg .node .neo-node{stroke:#9370DB;}#my-svg [data-look="neo"].node rect,#my-svg [data-look="neo"].cluster rect,#my-svg [data-look="neo"].node polygon{stroke:#9370DB;filter:drop-shadow(1px 2px 2px rgba(185, 185, 185, 1));}#my-svg [data-look="neo"].swimlane.cluster rect{filter:none;}#my-svg [data-look="neo"].node path{stroke:#9370DB;stroke-width:1px;}#my-svg [data-look="neo"].node .outer-path{filter:drop-shadow(1px 2px 2px rgba(185, 185, 185, 1));}#my-svg [data-look="neo"].node .neo-line path{stroke:#9370DB;filter:none;}#my-svg [data-look="neo"].node circle{stroke:#9370DB;filter:drop-shadow(1px 2px 2px rgba(185, 185, 185, 1));}#my-svg [data-look="neo"].node circle .state-start{fill:#000000;}#my-svg [data-look="neo"].icon-shape .icon{fill:#9370DB;filter:drop-shadow(1px 2px 2px rgba(185, 185, 185, 1));}#my-svg [data-look="neo"].icon-shape .icon-neo path{stroke:#9370DB;filter:drop-shadow(1px 2px 2px rgba(185, 185, 185, 1));}#my-svg :root{--mermaid-font-family:"trebuchet ms",verdana,arial,sans-serif;}</style><g><defs><marker id="my-svg_er-onlyOneStart" class="marker onlyOne er" refX="0" refY="9" markerWidth="18" markerHeight="18" orient="auto"><path d="M9,0 L9,18 M15,0 L15,18"/></marker></defs><defs><marker id="my-svg_er-onlyOneEnd" class="marker onlyOne er" refX="18" refY="9" markerWidth="18" markerHeight="18" orient="auto"><path d="M3,0 L3,18 M9,0 L9,18"/></marker></defs><defs><marker id="my-svg_er-zeroOrOneStart" class="marker zeroOrOne er" refX="0" refY="9" markerWidth="30" markerHeight="18" orient="auto"><circle fill="white" cx="21" cy="9" r="6"/><path d="M9,0 L9,18"/></marker></defs><defs><marker id="my-svg_er-zeroOrOneEnd" class="marker zeroOrOne er" refX="30" refY="9" markerWidth="30" markerHeight="18" orient="auto"><circle fill="white" cx="9" cy="9" r="6"/><path d="M21,0 L21,18"/></marker></defs><defs><marker id="my-svg_er-oneOrMoreStart" class="marker oneOrMore er" refX="18" refY="18" markerWidth="45" markerHeight="36" orient="auto"><path d="M0,18 Q 18,0 36,18 Q 18,36 0,18 M42,9 L42,27"/></marker></defs><defs><marker id="my-svg_er-oneOrMoreEnd" class="marker oneOrMore er" refX="27" refY="18" markerWidth="45" markerHeight="36" orient="auto"><path d="M3,9 L3,27 M9,18 Q27,0 45,18 Q27,36 9,18"/></marker></defs><defs><marker id="my-svg_er-zeroOrMoreStart" class="marker zeroOrMore er" refX="18" refY="18" markerWidth="57" markerHeight="36" orient="auto"><circle fill="white" cx="48" cy="18" r="6"/><path d="M0,18 Q18,0 36,18 Q18,36 0,18"/></marker></defs><defs><marker id="my-svg_er-zeroOrMoreEnd" class="marker zeroOrMore er" refX="39" refY="18" markerWidth="57" markerHeight="36" orient="auto"><circle fill="white" cx="9" cy="18" r="6"/><path d="M21,18 Q39,0 57,18 Q39,36 21,18"/></marker></defs><g class="root"><g class="clusters"/><g class="edgePaths"><path d="M360.477,182.18L402.382,204.316C444.286,226.453,528.096,270.727,570.001,301.28C611.906,331.833,611.906,348.667,611.906,357.083L611.906,365.5" id="my-svg-id_entity-User-0_entity-Ticket-1_0" class="edge-thickness-normal edge-pattern-solid relationshipLine" style="undefined;;;undefined" data-edge="true" data-et="edge" data-id="id_entity-User-0_entity-Ticket-1_0" data-points="W3sieCI6MzYwLjQ3NjU2MjUsInkiOjE4Mi4xNzk3MzY1NjI2MTU0M30seyJ4Ijo2MTEuOTA2MjUsInkiOjMxNX0seyJ4Ijo2MTEuOTA2MjUsInkiOjM2NS41fV0=" data-look="classic" marker-start="url(#my-svg_er-onlyOneStart)" marker-end="url(#my-svg_er-zeroOrMoreEnd)"/><path d="M192.834,200.375L168.793,219.479C144.751,238.583,96.669,276.792,72.627,322.125C48.586,367.458,48.586,419.917,48.586,472.375C48.586,524.833,48.586,577.292,57.445,611.938C66.304,646.583,84.023,663.417,92.882,671.833L101.741,680.25" id="my-svg-id_entity-User-0_entity-TicketReply-2_1" class="edge-thickness-normal edge-pattern-solid relationshipLine" style="undefined;;;undefined" data-edge="true" data-et="edge" data-id="id_entity-User-0_entity-TicketReply-2_1" data-points="W3sieCI6MTkyLjgzNDA4NTQ0NTgwNDIsInkiOjIwMC4zNzV9LHsieCI6NDguNTg1OTM3NSwieSI6MzE1fSx7IngiOjQ4LjU4NTkzNzUsInkiOjQ3Mi4zNzV9LHsieCI6NDguNTg1OTM3NSwieSI6NjI5Ljc1fSx7IngiOjEwMS43NDEzODY2NTQ4NTI3NywieSI6NjgwLjI1fV0=" data-look="classic" marker-start="url(#my-svg_er-onlyOneStart)" marker-end="url(#my-svg_er-zeroOrMoreEnd)"/><path d="M273.531,200.375L273.531,219.479C273.531,238.583,273.531,276.792,273.531,304.313C273.531,331.833,273.531,348.667,273.531,357.083L273.531,365.5" id="my-svg-id_entity-User-0_entity-DirectMessage-3_2" class="edge-thickness-normal edge-pattern-solid relationshipLine" style="undefined;;;undefined" data-edge="true" data-et="edge" data-id="id_entity-User-0_entity-DirectMessage-3_2" data-points="W3sieCI6MjczLjUzMTI1LCJ5IjoyMDAuMzc1fSx7IngiOjI3My41MzEyNSwieSI6MzE1fSx7IngiOjI3My41MzEyNSwieSI6MzY1LjV9XQ==" data-look="classic" marker-start="url(#my-svg_er-onlyOneStart)" marker-end="url(#my-svg_er-zeroOrMoreEnd)"/><path d="M611.906,579.25L611.906,587.667C611.906,596.083,611.906,612.917,554.367,636.233C496.827,659.549,381.747,689.348,324.208,704.247L266.668,719.146" id="my-svg-id_entity-Ticket-1_entity-TicketReply-2_3" class="edge-thickness-normal edge-pattern-solid relationshipLine" style="undefined;;;undefined" data-edge="true" data-et="edge" data-id="id_entity-Ticket-1_entity-TicketReply-2_3" data-points="W3sieCI6NjExLjkwNjI1LCJ5Ijo1NzkuMjV9LHsieCI6NjExLjkwNjI1LCJ5Ijo2MjkuNzV9LHsieCI6MjY2LjY2Nzk2ODc1LCJ5Ijo3MTkuMTQ2NDM0MzA3MjQ1Nn1d" data-look="classic" marker-start="url(#my-svg_er-onlyOneStart)" marker-end="url(#my-svg_er-zeroOrMoreEnd)"/></g><g class="edgeLabels"><g class="edgeLabel" transform="translate(611.90625, 315)"><g class="label" data-id="id_entity-User-0_entity-Ticket-1_0" transform="translate(-21.1953125, -10.5)"><foreignObject width="42.390625" height="21"><div xmlns="http://www.w3.org/1999/xhtml" class="labelBkg" style="display: table-cell; white-space: nowrap; line-height: 1.5; max-width: 200px; text-align: center;"><span class="edgeLabel"><p>tickets</p></span></div></foreignObject></g></g><g class="edgeLabel" transform="translate(48.5859375, 472.375)"><g class="label" data-id="id_entity-User-0_entity-TicketReply-2_1" transform="translate(-40.5859375, -10.5)"><foreignObject width="81.171875" height="21"><div xmlns="http://www.w3.org/1999/xhtml" class="labelBkg" style="display: table-cell; white-space: nowrap; line-height: 1.5; max-width: 200px; text-align: center;"><span class="edgeLabel"><p>ticketReplies</p></span></div></foreignObject></g></g><g class="edgeLabel" transform="translate(273.53125, 315)"><g class="label" data-id="id_entity-User-0_entity-DirectMessage-3_2" transform="translate(-86.9453125, -10.5)"><foreignObject width="173.890625" height="21"><div xmlns="http://www.w3.org/1999/xhtml" class="labelBkg" style="display: table-cell; white-space: nowrap; line-height: 1.5; max-width: 200px; text-align: center;"><span class="edgeLabel"><p>sentMessages/recvMessages</p></span></div></foreignObject></g></g><g class="edgeLabel" transform="translate(611.90625, 629.75)"><g class="label" data-id="id_entity-Ticket-1_entity-TicketReply-2_3" transform="translate(-21.15625, -10.5)"><foreignObject width="42.3125" height="21"><div xmlns="http://www.w3.org/1999/xhtml" class="labelBkg" style="display: table-cell; white-space: nowrap; line-height: 1.5; max-width: 200px; text-align: center;"><span class="edgeLabel"><p>replies</p></span></div></foreignObject></g></g></g><g class="nodes"><g class="node default" id="my-svg-entity-User-0" data-look="classic" transform="translate(273.53125, 136.25)"><g class="outer-path" style=""><path d="M-86.9453125 -64.125 L86.9453125 -64.125 L86.9453125 64.125 L-86.9453125 64.125" stroke="none" stroke-width="0" fill="#ECECFF"/><path d="M-86.9453125 -64.125 C-46.67230947968568 -64.125, -6.39930645937136 -64.125, 86.9453125 -64.125 M-86.9453125 -64.125 C-37.219052265785756 -64.125, 12.507207968428489 -64.125, 86.9453125 -64.125 M86.9453125 -64.125 C86.9453125 -29.145156800956904, 86.9453125 5.834686398086191, 86.9453125 64.125 M86.9453125 -64.125 C86.9453125 -29.24818954038423, 86.9453125 5.628620919231537, 86.9453125 64.125 M86.9453125 64.125 C25.27233280269006 64.125, -36.40064689461988 64.125, -86.9453125 64.125 M86.9453125 64.125 C28.852737279710446 64.125, -29.239837940579108 64.125, -86.9453125 64.125 M-86.9453125 64.125 C-86.9453125 18.161324325380782, -86.9453125 -27.802351349238435, -86.9453125 -64.125 M-86.9453125 64.125 C-86.9453125 17.515180606423513, -86.9453125 -29.094638787152974, -86.9453125 -64.125" stroke="#9370DB" stroke-width="1.3" fill="none" stroke-dasharray="0 0"/></g><g style="" class="row-rect-odd"><path d="M-86.9453125 -21.375 L86.9453125 -21.375 L86.9453125 21.375 L-86.9453125 21.375" stroke="none" stroke-width="0" fill="hsl(240, 100%, 100%)"/><path d="M-86.9453125 -21.375 C-46.445048219440835 -21.375, -5.94478393888167 -21.375, 86.9453125 -21.375 M-86.9453125 -21.375 C-36.6730502248904 -21.375, 13.599212050219194 -21.375, 86.9453125 -21.375 M86.9453125 -21.375 C86.9453125 -10.155255769742608, 86.9453125 1.0644884605147844, 86.9453125 21.375 M86.9453125 -21.375 C86.9453125 -4.622587459477426, 86.9453125 12.129825081045148, 86.9453125 21.375 M86.9453125 21.375 C21.372710065145384 21.375, -44.19989236970923 21.375, -86.9453125 21.375 M86.9453125 21.375 C18.54543892208042 21.375, -49.85443465583916 21.375, -86.9453125 21.375 M-86.9453125 21.375 C-86.9453125 6.560793483661973, -86.9453125 -8.253413032676054, -86.9453125 -21.375 M-86.9453125 21.375 C-86.9453125 8.691799179725392, -86.9453125 -3.991401640549217, -86.9453125 -21.375" stroke="#9370DB" stroke-width="1.3" fill="none" stroke-dasharray="0 0"/></g><g style="" class="row-rect-even"><path d="M-86.9453125 21.375 L86.9453125 21.375 L86.9453125 64.125 L-86.9453125 64.125" stroke="none" stroke-width="0" fill="hsl(240, 100%, 97.2745098039%)"/><path d="M-86.9453125 21.375 C-30.0378004175801 21.375, 26.869711664839798 21.375, 86.9453125 21.375 M-86.9453125 21.375 C-22.17885553721044 21.375, 42.58760142557912 21.375, 86.9453125 21.375 M86.9453125 21.375 C86.9453125 31.197886583173172, 86.9453125 41.020773166346345, 86.9453125 64.125 M86.9453125 21.375 C86.9453125 30.033560032613824, 86.9453125 38.69212006522765, 86.9453125 64.125 M86.9453125 64.125 C18.837279377250468 64.125, -49.270753745499064 64.125, -86.9453125 64.125 M86.9453125 64.125 C32.867572805498845 64.125, -21.21016688900231 64.125, -86.9453125 64.125 M-86.9453125 64.125 C-86.9453125 47.35282847741237, -86.9453125 30.580656954824754, -86.9453125 21.375 M-86.9453125 64.125 C-86.9453125 54.73126206484973, -86.9453125 45.33752412969947, -86.9453125 21.375" stroke="#9370DB" stroke-width="1.3" fill="none" stroke-dasharray="0 0"/></g><g class="label name" transform="translate(-15.8984375, -54.75)" style=""><foreignObject width="31.796875" height="24"><div xmlns="http://www.w3.org/1999/xhtml" style="display: table-cell; white-space: nowrap; line-height: 1.5; max-width: 132px; text-align: start;"><span class="nodeLabel"><p>User</p></span></div></foreignObject></g><g class="label attribute-type" transform="translate(-74.4453125, -12)" style=""><foreignObject width="41.59375" height="24"><div xmlns="http://www.w3.org/1999/xhtml" style="display: table-cell; white-space: nowrap; line-height: 1.5; max-width: 139px; text-align: start;"><span class="nodeLabel"><p>String</p></span></div></foreignObject></g><g class="label attribute-name" transform="translate(-7.8515625, -12)" style=""><foreignObject width="13.484375" height="24"><div xmlns="http://www.w3.org/1999/xhtml" style="display: table-cell; white-space: nowrap; line-height: 1.5; max-width: 113px; text-align: start;"><span class="nodeLabel"><p>id</p></span></div></foreignObject></g><g class="label attribute-keys" transform="translate(56.3046875, -12)" style=""><foreignObject width="18.140625" height="24"><div xmlns="http://www.w3.org/1999/xhtml" style="display: table-cell; white-space: nowrap; line-height: 1.5; max-width: 122px; text-align: start;"><span class="nodeLabel"><p>PK</p></span></div></foreignObject></g><g class="label attribute-comment" transform="translate(99.4453125, -12)" style=""><foreignObject width="0" height="0"><div xmlns="http://www.w3.org/1999/xhtml" style="display: table-cell; white-space: nowrap; line-height: 1.5; max-width: 100px; text-align: start;"><span class="nodeLabel"></span></div></foreignObject></g><g class="label attribute-type" transform="translate(-74.4453125, 30.75)" style=""><foreignObject width="41.59375" height="24"><div xmlns="http://www.w3.org/1999/xhtml" style="display: table-cell; white-space: nowrap; line-height: 1.5; max-width: 139px; text-align: start;"><span class="nodeLabel"><p>String</p></span></div></foreignObject></g><g class="label attribute-name" transform="translate(-7.8515625, 30.75)" style=""><foreignObject width="39.15625" height="24"><div xmlns="http://www.w3.org/1999/xhtml" style="display: table-cell; white-space: nowrap; line-height: 1.5; max-width: 136px; text-align: start;"><span class="nodeLabel"><p>name</p></span></div></foreignObject></g><g class="label attribute-keys" transform="translate(56.3046875, 30.75)" style=""><foreignObject width="0" height="0"><div xmlns="http://www.w3.org/1999/xhtml" style="display: table-cell; white-space: nowrap; line-height: 1.5; max-width: 100px; text-align: start;"><span class="nodeLabel"></span></div></foreignObject></g><g class="label attribute-comment" transform="translate(99.4453125, 30.75)" style=""><foreignObject width="0" height="0"><div xmlns="http://www.w3.org/1999/xhtml" style="display: table-cell; white-space: nowrap; line-height: 1.5; max-width: 100px; text-align: start;"><span class="nodeLabel"></span></div></foreignObject></g><g class="divider"><path d="M-86.9453125 -21.37505 L-86.9453125 -21.37495 L86.9453125 -21.37495 L86.9453125 -21.37505" stroke="none" stroke-width="0" fill="#ECECFF" fill-rule="evenodd"/><path d="M-86.9453125 -21.37505 C-86.9453125 -21.375015432611367, -86.9453125 -21.37498086522273, -86.9453125 -21.37495 M-86.9453125 -21.37505 C-86.9453125 -21.375018132308607, -86.9453125 -21.37498626461721, -86.9453125 -21.37495 M-86.9453125 -21.37495 C-33.26708828863501 -21.37495, 20.411135922729983 -21.37495, 86.9453125 -21.37495 M-86.9453125 -21.37495 C-22.957443499624894 -21.37495, 41.03042550075021 -21.37495, 86.9453125 -21.37495 M86.9453125 -21.37495 C86.9453125 -21.374972499344455, 86.9453125 -21.374994998688912, 86.9453125 -21.37505 M86.9453125 -21.37495 C86.9453125 -21.37497708157551, 86.9453125 -21.37500416315102, 86.9453125 -21.37505 M86.9453125 -21.37505 C35.149974382259835 -21.37505, -16.64536373548033 -21.37505, -86.9453125 -21.37505 M86.9453125 -21.37505 C45.81452366785884 -21.37505, 4.6837348357176865 -21.37505, -86.9453125 -21.37505" stroke="#9370DB" stroke-width="1.3" fill="none" stroke-dasharray="0 0"/></g><g class="divider"><path d="M-20.3516125 -21.375 L-20.3515125 -21.375 L-20.3515125 64.125 L-20.3516125 64.125" stroke="none" stroke-width="0" fill="#ECECFF" fill-rule="evenodd"/><path d="M-20.3516125 -21.375 C-20.35157578595696 -21.375, -20.351539071913923 -21.375, -20.3515125 -21.375 M-20.3516125 -21.375 C-20.35158379716733 -21.375, -20.35155509433466 -21.375, -20.3515125 -21.375 M-20.3515125 -21.375 C-20.3515125 -0.8528298132926331, -20.3515125 19.669340373414734, -20.3515125 64.125 M-20.3515125 -21.375 C-20.3515125 8.182412859829402, -20.3515125 37.7398257196588, -20.3515125 64.125 M-20.3515125 64.125 C-20.351545232405623 64.125, -20.351577964811252 64.125, -20.3516125 64.125 M-20.3515125 64.125 C-20.35154623419599 64.125, -20.35157996839198 64.125, -20.3516125 64.125 M-20.3516125 64.125 C-20.3516125 39.65686943748878, -20.3516125 15.188738874977567, -20.3516125 -21.375 M-20.3516125 64.125 C-20.3516125 44.78405335086624, -20.3516125 25.443106701732475, -20.3516125 -21.375" stroke="#9370DB" stroke-width="1.3" fill="none" stroke-dasharray="0 0"/></g><g class="divider"><path d="M43.8046375 -21.375 L43.8047375 -21.375 L43.8047375 64.125 L43.8046375 64.125" stroke="none" stroke-width="0" fill="#ECECFF" fill-rule="evenodd"/><path d="M43.8046375 -21.375 C43.80466256675418 -21.375, 43.804687633508365 -21.375, 43.8047375 -21.375 M43.8046375 -21.375 C43.804669868307776 -21.375, 43.80470223661555 -21.375, 43.8047375 -21.375 M43.8047375 -21.375 C43.8047375 0.05918109674095362, 43.8047375 21.493362193481907, 43.8047375 64.125 M43.8047375 -21.375 C43.8047375 10.778738245492228, 43.8047375 42.932476490984456, 43.8047375 64.125 M43.8047375 64.125 C43.804709078207395 64.125, 43.80468065641479 64.125, 43.8046375 64.125 M43.8047375 64.125 C43.804710112751394 64.125, 43.804682725502786 64.125, 43.8046375 64.125 M43.8046375 64.125 C43.8046375 46.21798887250799, 43.8046375 28.310977745015983, 43.8046375 -21.375 M43.8046375 64.125 C43.8046375 46.06288942999521, 43.8046375 28.00077885999042, 43.8046375 -21.375" stroke="#9370DB" stroke-width="1.3" fill="none" stroke-dasharray="0 0"/></g><g class="divider"><path d="M-86.9453125 -21.37505 L-86.9453125 -21.37495 L86.9453125 -21.37495 L86.9453125 -21.37505" stroke="none" stroke-width="0" fill="#ECECFF" fill-rule="evenodd"/><path d="M-86.9453125 -21.37505 C-86.9453125 -21.375013268238753, -86.9453125 -21.374976536477504, -86.9453125 -21.37495 M-86.9453125 -21.37505 C-86.9453125 -21.37502528514685, -86.9453125 -21.375000570293704, -86.9453125 -21.37495 M-86.9453125 -21.37495 C-42.274066605006894 -21.37495, 2.3971792899862123 -21.37495, 86.9453125 -21.37495 M-86.9453125 -21.37495 C-42.37962255581137 -21.37495, 2.1860673883772535 -21.37495, 86.9453125 -21.37495 M86.9453125 -21.37495 C86.9453125 -21.37498413200468, 86.9453125 -21.375018264009366, 86.9453125 -21.37505 M86.9453125 -21.37495 C86.9453125 -21.37497635628722, 86.9453125 -21.375002712574442, 86.9453125 -21.37505 M86.9453125 -21.37505 C36.20272713620279 -21.37505, -14.539858227594422 -21.37505, -86.9453125 -21.37505 M86.9453125 -21.37505 C47.66118335388213 -21.37505, 8.37705420776426 -21.37505, -86.9453125 -21.37505" stroke="#9370DB" stroke-width="1.3" fill="none" stroke-dasharray="0 0"/></g></g><g class="node default" id="my-svg-entity-Ticket-1" data-look="classic" transform="translate(611.90625, 472.375)"><g class="outer-path" style=""><path d="M-94.015625 -106.875 L94.015625 -106.875 L94.015625 106.875 L-94.015625 106.875" stroke="none" stroke-width="0" fill="#ECECFF"/><path d="M-94.015625 -106.875 C-54.33376504348855 -106.875, -14.651905086977095 -106.875, 94.015625 -106.875 M-94.015625 -106.875 C-47.61184546855002 -106.875, -1.208065937100045 -106.875, 94.015625 -106.875 M94.015625 -106.875 C94.015625 -58.4227454040921, 94.015625 -9.970490808184195, 94.015625 106.875 M94.015625 -106.875 C94.015625 -31.10474348642643, 94.015625 44.66551302714714, 94.015625 106.875 M94.015625 106.875 C43.49348576839178 106.875, -7.028653463216443 106.875, -94.015625 106.875 M94.015625 106.875 C45.04399198119584 106.875, -3.927641037608325 106.875, -94.015625 106.875 M-94.015625 106.875 C-94.015625 26.283137612202907, -94.015625 -54.308724775594186, -94.015625 -106.875 M-94.015625 106.875 C-94.015625 63.3720368183366, -94.015625 19.869073636673207, -94.015625 -106.875" stroke="#9370DB" stroke-width="1.3" fill="none" stroke-dasharray="0 0"/></g><g style="" class="row-rect-odd"><path d="M-94.015625 -64.125 L94.015625 -64.125 L94.015625 -21.375 L-94.015625 -21.375" stroke="none" stroke-width="0" fill="hsl(240, 100%, 100%)"/><path d="M-94.015625 -64.125 C-28.59570186773044 -64.125, 36.82422126453912 -64.125, 94.015625 -64.125 M-94.015625 -64.125 C-48.59078139281987 -64.125, -3.1659377856397413 -64.125, 94.015625 -64.125 M94.015625 -64.125 C94.015625 -47.49791339065315, 94.015625 -30.870826781306306, 94.015625 -21.375 M94.015625 -64.125 C94.015625 -47.809454600022384, 94.015625 -31.49390920004477, 94.015625 -21.375 M94.015625 -21.375 C43.04174970177676 -21.375, -7.9321255964464825 -21.375, -94.015625 -21.375 M94.015625 -21.375 C37.25289201703771 -21.375, -19.50984096592458 -21.375, -94.015625 -21.375 M-94.015625 -21.375 C-94.015625 -32.707305764062525, -94.015625 -44.03961152812504, -94.015625 -64.125 M-94.015625 -21.375 C-94.015625 -34.765887344103476, -94.015625 -48.15677468820695, -94.015625 -64.125" stroke="#9370DB" stroke-width="1.3" fill="none" stroke-dasharray="0 0"/></g><g style="" class="row-rect-even"><path d="M-94.015625 -21.375 L94.015625 -21.375 L94.015625 21.375 L-94.015625 21.375" stroke="none" stroke-width="0" fill="hsl(240, 100%, 97.2745098039%)"/><path d="M-94.015625 -21.375 C-28.119865012932635 -21.375, 37.77589497413473 -21.375, 94.015625 -21.375 M-94.015625 -21.375 C-19.558704516988072 -21.375, 54.898215966023855 -21.375, 94.015625 -21.375 M94.015625 -21.375 C94.015625 -9.71427169815917, 94.015625 1.9464566036816606, 94.015625 21.375 M94.015625 -21.375 C94.015625 -7.728379870481572, 94.015625 5.918240259036857, 94.015625 21.375 M94.015625 21.375 C41.59309800645707 21.375, -10.829428987085862 21.375, -94.015625 21.375 M94.015625 21.375 C46.017046377366626 21.375, -1.9815322452667488 21.375, -94.015625 21.375 M-94.015625 21.375 C-94.015625 10.198843873863591, -94.015625 -0.9773122522728173, -94.015625 -21.375 M-94.015625 21.375 C-94.015625 5.296037635761291, -94.015625 -10.782924728477418, -94.015625 -21.375" stroke="#9370DB" stroke-width="1.3" fill="none" stroke-dasharray="0 0"/></g><g style="" class="row-rect-odd"><path d="M-94.015625 21.375 L94.015625 21.375 L94.015625 64.125 L-94.015625 64.125" stroke="none" stroke-width="0" fill="hsl(240, 100%, 100%)"/><path d="M-94.015625 21.375 C-23.513949743608578 21.375, 46.987725512782845 21.375, 94.015625 21.375 M-94.015625 21.375 C-52.19725191755371 21.375, -10.378878835107415 21.375, 94.015625 21.375 M94.015625 21.375 C94.015625 32.78753617601602, 94.015625 44.20007235203204, 94.015625 64.125 M94.015625 21.375 C94.015625 35.56051642433353, 94.015625 49.74603284866705, 94.015625 64.125 M94.015625 64.125 C35.487000761398555 64.125, -23.04162347720289 64.125, -94.015625 64.125 M94.015625 64.125 C22.487456821927864 64.125, -49.04071135614427 64.125, -94.015625 64.125 M-94.015625 64.125 C-94.015625 48.98380318467457, -94.015625 33.84260636934914, -94.015625 21.375 M-94.015625 64.125 C-94.015625 53.90311906584216, -94.015625 43.681238131684324, -94.015625 21.375" stroke="#9370DB" stroke-width="1.3" fill="none" stroke-dasharray="0 0"/></g><g style="" class="row-rect-even"><path d="M-94.015625 64.125 L94.015625 64.125 L94.015625 106.875 L-94.015625 106.875" stroke="none" stroke-width="0" fill="hsl(240, 100%, 97.2745098039%)"/><path d="M-94.015625 64.125 C-34.99455463432553 64.125, 24.026515731348937 64.125, 94.015625 64.125 M-94.015625 64.125 C-45.996954510421624 64.125, 2.0217159791567525 64.125, 94.015625 64.125 M94.015625 64.125 C94.015625 80.90113985286314, 94.015625 97.67727970572628, 94.015625 106.875 M94.015625 64.125 C94.015625 79.47826900381374, 94.015625 94.83153800762747, 94.015625 106.875 M94.015625 106.875 C55.185269801425484 106.875, 16.354914602850968 106.875, -94.015625 106.875 M94.015625 106.875 C30.050529436338813 106.875, -33.914566127322374 106.875, -94.015625 106.875 M-94.015625 106.875 C-94.015625 91.62611695107665, -94.015625 76.3772339021533, -94.015625 64.125 M-94.015625 106.875 C-94.015625 91.234600321444, -94.015625 75.59420064288801, -94.015625 64.125" stroke="#9370DB" stroke-width="1.3" fill="none" stroke-dasharray="0 0"/></g><g class="label name" transform="translate(-22.125, -97.5)" style=""><foreignObject width="44.25" height="24"><div xmlns="http://www.w3.org/1999/xhtml" style="display: table-cell; white-space: nowrap; line-height: 1.5; max-width: 141px; text-align: start;"><span class="nodeLabel"><p>Ticket</p></span></div></foreignObject></g><g class="label attribute-type" transform="translate(-81.515625, -54.75)" style=""><foreignObject width="41.59375" height="24"><div xmlns="http://www.w3.org/1999/xhtml" style="display: table-cell; white-space: nowrap; line-height: 1.5; max-width: 139px; text-align: start;"><span class="nodeLabel"><p>String</p></span></div></foreignObject></g><g class="label attribute-name" transform="translate(-14.921875, -54.75)" style=""><foreignObject width="13.484375" height="24"><div xmlns="http://www.w3.org/1999/xhtml" style="display: table-cell; white-space: nowrap; line-height: 1.5; max-width: 113px; text-align: start;"><span class="nodeLabel"><p>id</p></span></div></foreignObject></g><g class="label attribute-keys" transform="translate(63.375, -54.75)" style=""><foreignObject width="18.140625" height="24"><div xmlns="http://www.w3.org/1999/xhtml" style="display: table-cell; white-space: nowrap; line-height: 1.5; max-width: 122px; text-align: start;"><span class="nodeLabel"><p>PK</p></span></div></foreignObject></g><g class="label attribute-comment" transform="translate(106.515625, -54.75)" style=""><foreignObject width="0" height="0"><div xmlns="http://www.w3.org/1999/xhtml" style="display: table-cell; white-space: nowrap; line-height: 1.5; max-width: 100px; text-align: start;"><span class="nodeLabel"></span></div></foreignObject></g><g class="label attribute-type" transform="translate(-81.515625, -12)" style=""><foreignObject width="41.59375" height="24"><div xmlns="http://www.w3.org/1999/xhtml" style="display: table-cell; white-space: nowrap; line-height: 1.5; max-width: 139px; text-align: start;"><span class="nodeLabel"><p>String</p></span></div></foreignObject></g><g class="label attribute-name" transform="translate(-14.921875, -12)" style=""><foreignObject width="53" height="24"><div xmlns="http://www.w3.org/1999/xhtml" style="display: table-cell; white-space: nowrap; line-height: 1.5; max-width: 146px; text-align: start;"><span class="nodeLabel"><p>subject</p></span></div></foreignObject></g><g class="label attribute-keys" transform="translate(63.375, -12)" style=""><foreignObject width="0" height="0"><div xmlns="http://www.w3.org/1999/xhtml" style="display: table-cell; white-space: nowrap; line-height: 1.5; max-width: 100px; text-align: start;"><span class="nodeLabel"></span></div></foreignObject></g><g class="label attribute-comment" transform="translate(106.515625, -12)" style=""><foreignObject width="0" height="0"><div xmlns="http://www.w3.org/1999/xhtml" style="display: table-cell; white-space: nowrap; line-height: 1.5; max-width: 100px; text-align: start;"><span class="nodeLabel"></span></div></foreignObject></g><g class="label attribute-type" transform="translate(-81.515625, 30.75)" style=""><foreignObject width="41.59375" height="24"><div xmlns="http://www.w3.org/1999/xhtml" style="display: table-cell; white-space: nowrap; line-height: 1.5; max-width: 139px; text-align: start;"><span class="nodeLabel"><p>String</p></span></div></foreignObject></g><g class="label attribute-name" transform="translate(-14.921875, 30.75)" style=""><foreignObject width="42.796875" height="24"><div xmlns="http://www.w3.org/1999/xhtml" style="display: table-cell; white-space: nowrap; line-height: 1.5; max-width: 136px; text-align: start;"><span class="nodeLabel"><p>status</p></span></div></foreignObject></g><g class="label attribute-keys" transform="translate(63.375, 30.75)" style=""><foreignObject width="0" height="0"><div xmlns="http://www.w3.org/1999/xhtml" style="display: table-cell; white-space: nowrap; line-height: 1.5; max-width: 100px; text-align: start;"><span class="nodeLabel"></span></div></foreignObject></g><g class="label attribute-comment" transform="translate(106.515625, 30.75)" style=""><foreignObject width="0" height="0"><div xmlns="http://www.w3.org/1999/xhtml" style="display: table-cell; white-space: nowrap; line-height: 1.5; max-width: 100px; text-align: start;"><span class="nodeLabel"></span></div></foreignObject></g><g class="label attribute-type" transform="translate(-81.515625, 73.5)" style=""><foreignObject width="41.59375" height="24"><div xmlns="http://www.w3.org/1999/xhtml" style="display: table-cell; white-space: nowrap; line-height: 1.5; max-width: 139px; text-align: start;"><span class="nodeLabel"><p>String</p></span></div></foreignObject></g><g class="label attribute-name" transform="translate(-14.921875, 73.5)" style=""><foreignObject width="53.296875" height="24"><div xmlns="http://www.w3.org/1999/xhtml" style="display: table-cell; white-space: nowrap; line-height: 1.5; max-width: 150px; text-align: start;"><span class="nodeLabel"><p>priority</p></span></div></foreignObject></g><g class="label attribute-keys" transform="translate(63.375, 73.5)" style=""><foreignObject width="0" height="0"><div xmlns="http://www.w3.org/1999/xhtml" style="display: table-cell; white-space: nowrap; line-height: 1.5; max-width: 100px; text-align: start;"><span class="nodeLabel"></span></div></foreignObject></g><g class="label attribute-comment" transform="translate(106.515625, 73.5)" style=""><foreignObject width="0" height="0"><div xmlns="http://www.w3.org/1999/xhtml" style="display: table-cell; white-space: nowrap; line-height: 1.5; max-width: 100px; text-align: start;"><span class="nodeLabel"></span></div></foreignObject></g><g class="divider"><path d="M-94.015625 -64.12505 L-94.015625 -64.12495 L94.015625 -64.12495 L94.015625 -64.12505" stroke="none" stroke-width="0" fill="#ECECFF" fill-rule="evenodd"/><path d="M-94.015625 -64.12505 C-94.015625 -64.12501496756869, -94.015625 -64.12497993513739, -94.015625 -64.12495 M-94.015625 -64.12505 C-94.015625 -64.12501338205871, -94.015625 -64.12497676411743, -94.015625 -64.12495 M-94.015625 -64.12495 C-45.169641350434304 -64.12495, 3.6763422991313917 -64.12495, 94.015625 -64.12495 M-94.015625 -64.12495 C-27.263920257376952 -64.12495, 39.487784485246095 -64.12495, 94.015625 -64.12495 M94.015625 -64.12495 C94.015625 -64.12497249337919, 94.015625 -64.12499498675838, 94.015625 -64.12505 M94.015625 -64.12495 C94.015625 -64.12498903964692, 94.015625 -64.12502807929383, 94.015625 -64.12505 M94.015625 -64.12505 C38.071907356837244 -64.12505, -17.871810286325513 -64.12505, -94.015625 -64.12505 M94.015625 -64.12505 C43.9057083885983 -64.12505, -6.204208222803402 -64.12505, -94.015625 -64.12505" stroke="#9370DB" stroke-width="1.3" fill="none" stroke-dasharray="0 0"/></g><g class="divider"><path d="M-27.421925 -64.125 L-27.421825 -64.125 L-27.421825 106.875 L-27.421925 106.875" stroke="none" stroke-width="0" fill="#ECECFF" fill-rule="evenodd"/><path d="M-27.421925 -64.125 C-27.4218989231495 -64.125, -27.421872846298996 -64.125, -27.421825 -64.125 M-27.421925 -64.125 C-27.421891831349807 -64.125, -27.421858662699616 -64.125, -27.421825 -64.125 M-27.421825 -64.125 C-27.421825 2.905169339668788, -27.421825 69.93533867933758, -27.421825 106.875 M-27.421825 -64.125 C-27.421825 -16.30960627962861, -27.421825 31.50578744074278, -27.421825 106.875 M-27.421825 106.875 C-27.42185091150974 106.875, -27.42187682301948 106.875, -27.421925 106.875 M-27.421825 106.875 C-27.42185392021548 106.875, -27.42188284043096 106.875, -27.421925 106.875 M-27.421925 106.875 C-27.421925 49.16948935799769, -27.421925 -8.536021284004619, -27.421925 -64.125 M-27.421925 106.875 C-27.421925 60.65769720905721, -27.421925 14.440394418114423, -27.421925 -64.125" stroke="#9370DB" stroke-width="1.3" fill="none" stroke-dasharray="0 0"/></g><g class="divider"><path d="M50.87495 -64.125 L50.87505 -64.125 L50.87505 106.875 L50.87495 106.875" stroke="none" stroke-width="0" fill="#ECECFF" fill-rule="evenodd"/><path d="M50.87495 -64.125 C50.87498346929 -64.125, 50.87501693858 -64.125, 50.87505 -64.125 M50.87495 -64.125 C50.8749882128062 -64.125, 50.875026425612404 -64.125, 50.87505 -64.125 M50.87505 -64.125 C50.87505 -0.9780996933209138, 50.87505 62.16880061335817, 50.87505 106.875 M50.87505 -64.125 C50.87505 -16.776498218038384, 50.87505 30.572003563923232, 50.87505 106.875 M50.87505 106.875 C50.875023891117486 106.875, 50.87499778223498 106.875, 50.87495 106.875 M50.87505 106.875 C50.87502094721723 106.875, 50.87499189443446 106.875, 50.87495 106.875 M50.87495 106.875 C50.87495 54.62766142699731, 50.87495 2.3803228539946133, 50.87495 -64.125 M50.87495 106.875 C50.87495 53.91902518516879, 50.87495 0.9630503703375837, 50.87495 -64.125" stroke="#9370DB" stroke-width="1.3" fill="none" stroke-dasharray="0 0"/></g><g class="divider"><path d="M-94.015625 -64.12505 L-94.015625 -64.12495 L94.015625 -64.12495 L94.015625 -64.12505" stroke="none" stroke-width="0" fill="#ECECFF" fill-rule="evenodd"/><path d="M-94.015625 -64.12505 C-94.015625 -64.12501712889078, -94.015625 -64.12498425778155, -94.015625 -64.12495 M-94.015625 -64.12505 C-94.015625 -64.12501845349153, -94.015625 -64.12498690698307, -94.015625 -64.12495 M-94.015625 -64.12495 C-29.639266514135812 -64.12495, 34.737091971728375 -64.12495, 94.015625 -64.12495 M-94.015625 -64.12495 C-48.59966146666066 -64.12495, -3.1836979333213264 -64.12495, 94.015625 -64.12495 M94.015625 -64.12495 C94.015625 -64.12497699799124, 94.015625 -64.12500399598248, 94.015625 -64.12505 M94.015625 -64.12495 C94.015625 -64.12498994557893, 94.015625 -64.12502989115785, 94.015625 -64.12505 M94.015625 -64.12505 C52.99600013423767 -64.12505, 11.976375268475337 -64.12505, -94.015625 -64.12505 M94.015625 -64.12505 C40.653627784204446 -64.12505, -12.708369431591109 -64.12505, -94.015625 -64.12505" stroke="#9370DB" stroke-width="1.3" fill="none" stroke-dasharray="0 0"/></g></g><g class="node default" id="my-svg-entity-TicketReply-2" data-look="classic" transform="translate(169.23828125, 744.375)"><g class="outer-path" style=""><path d="M-97.4296875 -64.125 L97.4296875 -64.125 L97.4296875 64.125 L-97.4296875 64.125" stroke="none" stroke-width="0" fill="#ECECFF"/><path d="M-97.4296875 -64.125 C-20.289625193778733 -64.125, 56.850437112442535 -64.125, 97.4296875 -64.125 M-97.4296875 -64.125 C-57.55513168399897 -64.125, -17.680575867997945 -64.125, 97.4296875 -64.125 M97.4296875 -64.125 C97.4296875 -24.26903216591529, 97.4296875 15.586935668169417, 97.4296875 64.125 M97.4296875 -64.125 C97.4296875 -23.064113081130216, 97.4296875 17.996773837739568, 97.4296875 64.125 M97.4296875 64.125 C48.18669868050463 64.125, -1.0562901389907466 64.125, -97.4296875 64.125 M97.4296875 64.125 C33.89075333193974 64.125, -29.648180836120517 64.125, -97.4296875 64.125 M-97.4296875 64.125 C-97.4296875 31.506859858218355, -97.4296875 -1.1112802835632891, -97.4296875 -64.125 M-97.4296875 64.125 C-97.4296875 38.090033850030295, -97.4296875 12.055067700060597, -97.4296875 -64.125" stroke="#9370DB" stroke-width="1.3" fill="none" stroke-dasharray="0 0"/></g><g style="" class="row-rect-odd"><path d="M-97.4296875 -21.375 L97.4296875 -21.375 L97.4296875 21.375 L-97.4296875 21.375" stroke="none" stroke-width="0" fill="hsl(240, 100%, 100%)"/><path d="M-97.4296875 -21.375 C-52.12292143146335 -21.375, -6.816155362926693 -21.375, 97.4296875 -21.375 M-97.4296875 -21.375 C-30.93899205187917 -21.375, 35.55170339624166 -21.375, 97.4296875 -21.375 M97.4296875 -21.375 C97.4296875 -8.206292789918038, 97.4296875 4.962414420163924, 97.4296875 21.375 M97.4296875 -21.375 C97.4296875 -10.270060047487632, 97.4296875 0.8348799050247351, 97.4296875 21.375 M97.4296875 21.375 C37.28132009225745 21.375, -22.867047315485095 21.375, -97.4296875 21.375 M97.4296875 21.375 C26.276324832891063 21.375, -44.87703783421787 21.375, -97.4296875 21.375 M-97.4296875 21.375 C-97.4296875 7.020862643180614, -97.4296875 -7.333274713638772, -97.4296875 -21.375 M-97.4296875 21.375 C-97.4296875 12.57516088803907, -97.4296875 3.7753217760781403, -97.4296875 -21.375" stroke="#9370DB" stroke-width="1.3" fill="none" stroke-dasharray="0 0"/></g><g style="" class="row-rect-even"><path d="M-97.4296875 21.375 L97.4296875 21.375 L97.4296875 64.125 L-97.4296875 64.125" stroke="none" stroke-width="0" fill="hsl(240, 100%, 97.2745098039%)"/><path d="M-97.4296875 21.375 C-21.303358099631296 21.375, 54.82297130073741 21.375, 97.4296875 21.375 M-97.4296875 21.375 C-53.245597762858594 21.375, -9.061508025717188 21.375, 97.4296875 21.375 M97.4296875 21.375 C97.4296875 36.57138719828695, 97.4296875 51.7677743965739, 97.4296875 64.125 M97.4296875 21.375 C97.4296875 30.44025218182685, 97.4296875 39.5055043636537, 97.4296875 64.125 M97.4296875 64.125 C25.397685134186744 64.125, -46.63431723162651 64.125, -97.4296875 64.125 M97.4296875 64.125 C46.843144094868386 64.125, -3.7433993102632286 64.125, -97.4296875 64.125 M-97.4296875 64.125 C-97.4296875 47.44023060767398, -97.4296875 30.755461215347957, -97.4296875 21.375 M-97.4296875 64.125 C-97.4296875 48.928353521434424, -97.4296875 33.73170704286885, -97.4296875 21.375" stroke="#9370DB" stroke-width="1.3" fill="none" stroke-dasharray="0 0"/></g><g class="label name" transform="translate(-41.5859375, -54.75)" style=""><foreignObject width="83.171875" height="24"><div xmlns="http://www.w3.org/1999/xhtml" style="display: table-cell; white-space: nowrap; line-height: 1.5; max-width: 180px; text-align: start;"><span class="nodeLabel"><p>TicketReply</p></span></div></foreignObject></g><g class="label attribute-type" transform="translate(-84.9296875, -12)" style=""><foreignObject width="41.59375" height="24"><div xmlns="http://www.w3.org/1999/xhtml" style="display: table-cell; white-space: nowrap; line-height: 1.5; max-width: 139px; text-align: start;"><span class="nodeLabel"><p>String</p></span></div></foreignObject></g><g class="label attribute-name" transform="translate(-18.3359375, -12)" style=""><foreignObject width="13.484375" height="24"><div xmlns="http://www.w3.org/1999/xhtml" style="display: table-cell; white-space: nowrap; line-height: 1.5; max-width: 113px; text-align: start;"><span class="nodeLabel"><p>id</p></span></div></foreignObject></g><g class="label attribute-keys" transform="translate(66.7890625, -12)" style=""><foreignObject width="18.140625" height="24"><div xmlns="http://www.w3.org/1999/xhtml" style="display: table-cell; white-space: nowrap; line-height: 1.5; max-width: 122px; text-align: start;"><span class="nodeLabel"><p>PK</p></span></div></foreignObject></g><g class="label attribute-comment" transform="translate(109.9296875, -12)" style=""><foreignObject width="0" height="0"><div xmlns="http://www.w3.org/1999/xhtml" style="display: table-cell; white-space: nowrap; line-height: 1.5; max-width: 100px; text-align: start;"><span class="nodeLabel"></span></div></foreignObject></g><g class="label attribute-type" transform="translate(-84.9296875, 30.75)" style=""><foreignObject width="41.59375" height="24"><div xmlns="http://www.w3.org/1999/xhtml" style="display: table-cell; white-space: nowrap; line-height: 1.5; max-width: 139px; text-align: start;"><span class="nodeLabel"><p>String</p></span></div></foreignObject></g><g class="label attribute-name" transform="translate(-18.3359375, 30.75)" style=""><foreignObject width="60.125" height="24"><div xmlns="http://www.w3.org/1999/xhtml" style="display: table-cell; white-space: nowrap; line-height: 1.5; max-width: 155px; text-align: start;"><span class="nodeLabel"><p>message</p></span></div></foreignObject></g><g class="label attribute-keys" transform="translate(66.7890625, 30.75)" style=""><foreignObject width="0" height="0"><div xmlns="http://www.w3.org/1999/xhtml" style="display: table-cell; white-space: nowrap; line-height: 1.5; max-width: 100px; text-align: start;"><span class="nodeLabel"></span></div></foreignObject></g><g class="label attribute-comment" transform="translate(109.9296875, 30.75)" style=""><foreignObject width="0" height="0"><div xmlns="http://www.w3.org/1999/xhtml" style="display: table-cell; white-space: nowrap; line-height: 1.5; max-width: 100px; text-align: start;"><span class="nodeLabel"></span></div></foreignObject></g><g class="divider"><path d="M-97.4296875 -21.37505 L-97.4296875 -21.37495 L97.4296875 -21.37495 L97.4296875 -21.37505" stroke="none" stroke-width="0" fill="#ECECFF" fill-rule="evenodd"/><path d="M-97.4296875 -21.37505 C-97.4296875 -21.375029762337732, -97.4296875 -21.375009524675463, -97.4296875 -21.37495 M-97.4296875 -21.37505 C-97.4296875 -21.375024825114863, -97.4296875 -21.37499965022973, -97.4296875 -21.37495 M-97.4296875 -21.37495 C-34.659747783994135 -21.37495, 28.11019193201173 -21.37495, 97.4296875 -21.37495 M-97.4296875 -21.37495 C-21.200494003675445 -21.37495, 55.02869949264911 -21.37495, 97.4296875 -21.37495 M97.4296875 -21.37495 C97.4296875 -21.374989414586754, 97.4296875 -21.37502882917351, 97.4296875 -21.37505 M97.4296875 -21.37495 C97.4296875 -21.374975450458503, 97.4296875 -21.37500090091701, 97.4296875 -21.37505 M97.4296875 -21.37505 C34.917797791090045 -21.37505, -27.59409191781991 -21.37505, -97.4296875 -21.37505 M97.4296875 -21.37505 C24.19894619775883 -21.37505, -49.03179510448234 -21.37505, -97.4296875 -21.37505" stroke="#9370DB" stroke-width="1.3" fill="none" stroke-dasharray="0 0"/></g><g class="divider"><path d="M-30.8359875 -21.375 L-30.8358875 -21.375 L-30.8358875 64.125 L-30.8359875 64.125" stroke="none" stroke-width="0" fill="#ECECFF" fill-rule="evenodd"/><path d="M-30.8359875 -21.375 C-30.835954125985015 -21.375, -30.835920751970026 -21.375, -30.8358875 -21.375 M-30.8359875 -21.375 C-30.835952615634707 -21.375, -30.835917731269415 -21.375, -30.8358875 -21.375 M-30.8358875 -21.375 C-30.8358875 8.329181066801446, -30.8358875 38.03336213360289, -30.8358875 64.125 M-30.8358875 -21.375 C-30.8358875 9.710873743420269, -30.8358875 40.79674748684054, -30.8358875 64.125 M-30.8358875 64.125 C-30.835924426218927 64.125, -30.835961352437856 64.125, -30.8359875 64.125 M-30.8358875 64.125 C-30.835915038832837 64.125, -30.835942577665673 64.125, -30.8359875 64.125 M-30.8359875 64.125 C-30.8359875 30.819154059139038, -30.8359875 -2.4866918817219243, -30.8359875 -21.375 M-30.8359875 64.125 C-30.8359875 40.07392522687317, -30.8359875 16.022850453746344, -30.8359875 -21.375" stroke="#9370DB" stroke-width="1.3" fill="none" stroke-dasharray="0 0"/></g><g class="divider"><path d="M54.2890125 -21.375 L54.2891125 -21.375 L54.2891125 64.125 L54.2890125 64.125" stroke="none" stroke-width="0" fill="#ECECFF" fill-rule="evenodd"/><path d="M54.2890125 -21.375 C54.28905070756316 -21.375, 54.28908891512632 -21.375, 54.2891125 -21.375 M54.2890125 -21.375 C54.28903640956963 -21.375, 54.289060319139274 -21.375, 54.2891125 -21.375 M54.2891125 -21.375 C54.2891125 4.8357052100157, 54.2891125 31.0464104200314, 54.2891125 64.125 M54.2891125 -21.375 C54.2891125 5.732656528808363, 54.2891125 32.840313057616726, 54.2891125 64.125 M54.2891125 64.125 C54.28907287212263 64.125, 54.28903324424525 64.125, 54.2890125 64.125 M54.2891125 64.125 C54.28907914079074 64.125, 54.28904578158148 64.125, 54.2890125 64.125 M54.2890125 64.125 C54.2890125 38.98315388280829, 54.2890125 13.841307765616577, 54.2890125 -21.375 M54.2890125 64.125 C54.2890125 35.18213521263856, 54.2890125 6.239270425277127, 54.2890125 -21.375" stroke="#9370DB" stroke-width="1.3" fill="none" stroke-dasharray="0 0"/></g><g class="divider"><path d="M-97.4296875 -21.37505 L-97.4296875 -21.37495 L97.4296875 -21.37495 L97.4296875 -21.37505" stroke="none" stroke-width="0" fill="#ECECFF" fill-rule="evenodd"/><path d="M-97.4296875 -21.37505 C-97.4296875 -21.37502012440955, -97.4296875 -21.374990248819095, -97.4296875 -21.37495 M-97.4296875 -21.37505 C-97.4296875 -21.375028192453176, -97.4296875 -21.37500638490635, -97.4296875 -21.37495 M-97.4296875 -21.37495 C-36.04221960718058 -21.37495, 25.345248285638846 -21.37495, 97.4296875 -21.37495 M-97.4296875 -21.37495 C-57.045430776839105 -21.37495, -16.66117405367821 -21.37495, 97.4296875 -21.37495 M97.4296875 -21.37495 C97.4296875 -21.37497276561154, 97.4296875 -21.37499553122308, 97.4296875 -21.37505 M97.4296875 -21.37495 C97.4296875 -21.37497261399409, 97.4296875 -21.374995227988183, 97.4296875 -21.37505 M97.4296875 -21.37505 C43.47614608028703 -21.37505, -10.47739533942594 -21.37505, -97.4296875 -21.37505 M97.4296875 -21.37505 C21.339187096444007 -21.37505, -54.751313307111985 -21.37505, -97.4296875 -21.37505" stroke="#9370DB" stroke-width="1.3" fill="none" stroke-dasharray="0 0"/></g></g><g class="node default" id="my-svg-entity-DirectMessage-3" data-look="classic" transform="translate(273.53125, 472.375)"><g class="outer-path" style=""><path d="M-104.359375 -106.875 L104.359375 -106.875 L104.359375 106.875 L-104.359375 106.875" stroke="none" stroke-width="0" fill="#ECECFF"/><path d="M-104.359375 -106.875 C-58.474075535539896 -106.875, -12.588776071079792 -106.875, 104.359375 -106.875 M-104.359375 -106.875 C-61.20623086987479 -106.875, -18.053086739749574 -106.875, 104.359375 -106.875 M104.359375 -106.875 C104.359375 -63.769514387749744, 104.359375 -20.66402877549949, 104.359375 106.875 M104.359375 -106.875 C104.359375 -26.526292931648868, 104.359375 53.822414136702264, 104.359375 106.875 M104.359375 106.875 C41.37312812073492 106.875, -21.613118758530163 106.875, -104.359375 106.875 M104.359375 106.875 C27.86204986007928 106.875, -48.63527527984144 106.875, -104.359375 106.875 M-104.359375 106.875 C-104.359375 48.81123796114836, -104.359375 -9.252524077703285, -104.359375 -106.875 M-104.359375 106.875 C-104.359375 54.95725189333716, -104.359375 3.0395037866743166, -104.359375 -106.875" stroke="#9370DB" stroke-width="1.3" fill="none" stroke-dasharray="0 0"/></g><g style="" class="row-rect-odd"><path d="M-104.359375 -64.125 L104.359375 -64.125 L104.359375 -21.375 L-104.359375 -21.375" stroke="none" stroke-width="0" fill="hsl(240, 100%, 100%)"/><path d="M-104.359375 -64.125 C-38.826728502634396 -64.125, 26.70591799473121 -64.125, 104.359375 -64.125 M-104.359375 -64.125 C-52.42992015548959 -64.125, -0.5004653109791803 -64.125, 104.359375 -64.125 M104.359375 -64.125 C104.359375 -54.39025367413818, 104.359375 -44.65550734827636, 104.359375 -21.375 M104.359375 -64.125 C104.359375 -54.10170934057518, 104.359375 -44.07841868115035, 104.359375 -21.375 M104.359375 -21.375 C30.87803780152265 -21.375, -42.6032993969547 -21.375, -104.359375 -21.375 M104.359375 -21.375 C26.746296760114404 -21.375, -50.86678147977119 -21.375, -104.359375 -21.375 M-104.359375 -21.375 C-104.359375 -30.536477927387928, -104.359375 -39.697955854775856, -104.359375 -64.125 M-104.359375 -21.375 C-104.359375 -32.73777178863469, -104.359375 -44.10054357726938, -104.359375 -64.125" stroke="#9370DB" stroke-width="1.3" fill="none" stroke-dasharray="0 0"/></g><g style="" class="row-rect-even"><path d="M-104.359375 -21.375 L104.359375 -21.375 L104.359375 21.375 L-104.359375 21.375" stroke="none" stroke-width="0" fill="hsl(240, 100%, 97.2745098039%)"/><path d="M-104.359375 -21.375 C-24.735704613288476 -21.375, 54.88796577342305 -21.375, 104.359375 -21.375 M-104.359375 -21.375 C-40.34742350929031 -21.375, 23.664527981419383 -21.375, 104.359375 -21.375 M104.359375 -21.375 C104.359375 -6.6533740571145525, 104.359375 8.068251885770895, 104.359375 21.375 M104.359375 -21.375 C104.359375 -10.866962849361917, 104.359375 -0.3589256987238336, 104.359375 21.375 M104.359375 21.375 C54.26607638220271 21.375, 4.172777764405424 21.375, -104.359375 21.375 M104.359375 21.375 C33.271059965769695 21.375, -37.81725506846061 21.375, -104.359375 21.375 M-104.359375 21.375 C-104.359375 10.803087787385662, -104.359375 0.23117557477132422, -104.359375 -21.375 M-104.359375 21.375 C-104.359375 12.435942726713735, -104.359375 3.4968854534274705, -104.359375 -21.375" stroke="#9370DB" stroke-width="1.3" fill="none" stroke-dasharray="0 0"/></g><g style="" class="row-rect-odd"><path d="M-104.359375 21.375 L104.359375 21.375 L104.359375 64.125 L-104.359375 64.125" stroke="none" stroke-width="0" fill="hsl(240, 100%, 100%)"/><path d="M-104.359375 21.375 C-42.44330747456762 21.375, 19.472760050864764 21.375, 104.359375 21.375 M-104.359375 21.375 C-43.89025097776247 21.375, 16.57887304447506 21.375, 104.359375 21.375 M104.359375 21.375 C104.359375 32.527573961433696, 104.359375 43.68014792286739, 104.359375 64.125 M104.359375 21.375 C104.359375 31.60773421826301, 104.359375 41.84046843652602, 104.359375 64.125 M104.359375 64.125 C55.71825607881426 64.125, 7.077137157628513 64.125, -104.359375 64.125 M104.359375 64.125 C50.24601587346349 64.125, -3.8673432530730167 64.125, -104.359375 64.125 M-104.359375 64.125 C-104.359375 49.53315376283535, -104.359375 34.941307525670695, -104.359375 21.375 M-104.359375 64.125 C-104.359375 53.23145384375088, -104.359375 42.337907687501755, -104.359375 21.375" stroke="#9370DB" stroke-width="1.3" fill="none" stroke-dasharray="0 0"/></g><g style="" class="row-rect-even"><path d="M-104.359375 64.125 L104.359375 64.125 L104.359375 106.875 L-104.359375 106.875" stroke="none" stroke-width="0" fill="hsl(240, 100%, 97.2745098039%)"/><path d="M-104.359375 64.125 C-46.249901415936684 64.125, 11.859572168126633 64.125, 104.359375 64.125 M-104.359375 64.125 C-37.00250449567673 64.125, 30.354366008646537 64.125, 104.359375 64.125 M104.359375 64.125 C104.359375 76.23269024192537, 104.359375 88.34038048385072, 104.359375 106.875 M104.359375 64.125 C104.359375 75.33463769336899, 104.359375 86.54427538673798, 104.359375 106.875 M104.359375 106.875 C22.48772552525567 106.875, -59.38392394948866 106.875, -104.359375 106.875 M104.359375 106.875 C43.3301559442095 106.875, -17.699063111580998 106.875, -104.359375 106.875 M-104.359375 106.875 C-104.359375 97.55534898899411, -104.359375 88.23569797798822, -104.359375 64.125 M-104.359375 106.875 C-104.359375 91.11045052586618, -104.359375 75.34590105173237, -104.359375 64.125" stroke="#9370DB" stroke-width="1.3" fill="none" stroke-dasharray="0 0"/></g><g class="label name" transform="translate(-50.890625, -97.5)" style=""><foreignObject width="101.78125" height="24"><div xmlns="http://www.w3.org/1999/xhtml" style="display: table-cell; white-space: nowrap; line-height: 1.5; max-width: 197px; text-align: start;"><span class="nodeLabel"><p>DirectMessage</p></span></div></foreignObject></g><g class="label attribute-type" transform="translate(-91.859375, -54.75)" style=""><foreignObject width="41.59375" height="24"><div xmlns="http://www.w3.org/1999/xhtml" style="display: table-cell; white-space: nowrap; line-height: 1.5; max-width: 139px; text-align: start;"><span class="nodeLabel"><p>String</p></span></div></foreignObject></g><g class="label attribute-name" transform="translate(-10.03125, -54.75)" style=""><foreignObject width="13.484375" height="24"><div xmlns="http://www.w3.org/1999/xhtml" style="display: table-cell; white-space: nowrap; line-height: 1.5; max-width: 113px; text-align: start;"><span class="nodeLabel"><p>id</p></span></div></foreignObject></g><g class="label attribute-keys" transform="translate(73.71875, -54.75)" style=""><foreignObject width="18.140625" height="24"><div xmlns="http://www.w3.org/1999/xhtml" style="display: table-cell; white-space: nowrap; line-height: 1.5; max-width: 122px; text-align: start;"><span class="nodeLabel"><p>PK</p></span></div></foreignObject></g><g class="label attribute-comment" transform="translate(116.859375, -54.75)" style=""><foreignObject width="0" height="0"><div xmlns="http://www.w3.org/1999/xhtml" style="display: table-cell; white-space: nowrap; line-height: 1.5; max-width: 100px; text-align: start;"><span class="nodeLabel"></span></div></foreignObject></g><g class="label attribute-type" transform="translate(-91.859375, -12)" style=""><foreignObject width="41.59375" height="24"><div xmlns="http://www.w3.org/1999/xhtml" style="display: table-cell; white-space: nowrap; line-height: 1.5; max-width: 139px; text-align: start;"><span class="nodeLabel"><p>String</p></span></div></foreignObject></g><g class="label attribute-name" transform="translate(-10.03125, -12)" style=""><foreignObject width="55.40625" height="24"><div xmlns="http://www.w3.org/1999/xhtml" style="display: table-cell; white-space: nowrap; line-height: 1.5; max-width: 148px; text-align: start;"><span class="nodeLabel"><p>content</p></span></div></foreignObject></g><g class="label attribute-keys" transform="translate(73.71875, -12)" style=""><foreignObject width="0" height="0"><div xmlns="http://www.w3.org/1999/xhtml" style="display: table-cell; white-space: nowrap; line-height: 1.5; max-width: 100px; text-align: start;"><span class="nodeLabel"></span></div></foreignObject></g><g class="label attribute-comment" transform="translate(116.859375, -12)" style=""><foreignObject width="0" height="0"><div xmlns="http://www.w3.org/1999/xhtml" style="display: table-cell; white-space: nowrap; line-height: 1.5; max-width: 100px; text-align: start;"><span class="nodeLabel"></span></div></foreignObject></g><g class="label attribute-type" transform="translate(-91.859375, 30.75)" style=""><foreignObject width="56.828125" height="24"><div xmlns="http://www.w3.org/1999/xhtml" style="display: table-cell; white-space: nowrap; line-height: 1.5; max-width: 155px; text-align: start;"><span class="nodeLabel"><p>Boolean</p></span></div></foreignObject></g><g class="label attribute-name" transform="translate(-10.03125, 30.75)" style=""><foreignObject width="32.265625" height="24"><div xmlns="http://www.w3.org/1999/xhtml" style="display: table-cell; white-space: nowrap; line-height: 1.5; max-width: 130px; text-align: start;"><span class="nodeLabel"><p>read</p></span></div></foreignObject></g><g class="label attribute-keys" transform="translate(73.71875, 30.75)" style=""><foreignObject width="0" height="0"><div xmlns="http://www.w3.org/1999/xhtml" style="display: table-cell; white-space: nowrap; line-height: 1.5; max-width: 100px; text-align: start;"><span class="nodeLabel"></span></div></foreignObject></g><g class="label attribute-comment" transform="translate(116.859375, 30.75)" style=""><foreignObject width="0" height="0"><div xmlns="http://www.w3.org/1999/xhtml" style="display: table-cell; white-space: nowrap; line-height: 1.5; max-width: 100px; text-align: start;"><span class="nodeLabel"></span></div></foreignObject></g><g class="label attribute-type" transform="translate(-91.859375, 73.5)" style=""><foreignObject width="56.828125" height="24"><div xmlns="http://www.w3.org/1999/xhtml" style="display: table-cell; white-space: nowrap; line-height: 1.5; max-width: 155px; text-align: start;"><span class="nodeLabel"><p>Boolean</p></span></div></foreignObject></g><g class="label attribute-name" transform="translate(-10.03125, 73.5)" style=""><foreignObject width="58.75" height="24"><div xmlns="http://www.w3.org/1999/xhtml" style="display: table-cell; white-space: nowrap; line-height: 1.5; max-width: 156px; text-align: start;"><span class="nodeLabel"><p>isBurner</p></span></div></foreignObject></g><g class="label attribute-keys" transform="translate(73.71875, 73.5)" style=""><foreignObject width="0" height="0"><div xmlns="http://www.w3.org/1999/xhtml" style="display: table-cell; white-space: nowrap; line-height: 1.5; max-width: 100px; text-align: start;"><span class="nodeLabel"></span></div></foreignObject></g><g class="label attribute-comment" transform="translate(116.859375, 73.5)" style=""><foreignObject width="0" height="0"><div xmlns="http://www.w3.org/1999/xhtml" style="display: table-cell; white-space: nowrap; line-height: 1.5; max-width: 100px; text-align: start;"><span class="nodeLabel"></span></div></foreignObject></g><g class="divider"><path d="M-104.359375 -64.12505 L-104.359375 -64.12495 L104.359375 -64.12495 L104.359375 -64.12505" stroke="none" stroke-width="0" fill="#ECECFF" fill-rule="evenodd"/><path d="M-104.359375 -64.12505 C-104.359375 -64.12501350075307, -104.359375 -64.12497700150614, -104.359375 -64.12495 M-104.359375 -64.12505 C-104.359375 -64.12502697734564, -104.359375 -64.12500395469127, -104.359375 -64.12495 M-104.359375 -64.12495 C-39.110085100955146 -64.12495, 26.139204798089708 -64.12495, 104.359375 -64.12495 M-104.359375 -64.12495 C-25.466964356511866 -64.12495, 53.42544628697627 -64.12495, 104.359375 -64.12495 M104.359375 -64.12495 C104.359375 -64.1249864591804, 104.359375 -64.12502291836081, 104.359375 -64.12505 M104.359375 -64.12495 C104.359375 -64.12497968711277, 104.359375 -64.12500937422553, 104.359375 -64.12505 M104.359375 -64.12505 C27.611707982381517 -64.12505, -49.135959035236965 -64.12505, -104.359375 -64.12505 M104.359375 -64.12505 C59.40197155317876 -64.12505, 14.444568106357522 -64.12505, -104.359375 -64.12505" stroke="#9370DB" stroke-width="1.3" fill="none" stroke-dasharray="0 0"/></g><g class="divider"><path d="M-22.5313 -64.125 L-22.5312 -64.125 L-22.5312 106.875 L-22.5313 106.875" stroke="none" stroke-width="0" fill="#ECECFF" fill-rule="evenodd"/><path d="M-22.5313 -64.125 C-22.531273828301856 -64.125, -22.531247656603707 -64.125, -22.5312 -64.125 M-22.5313 -64.125 C-22.53127113793473 -64.125, -22.53124227586946 -64.125, -22.5312 -64.125 M-22.5312 -64.125 C-22.5312 -15.737566845803485, -22.5312 32.64986630839303, -22.5312 106.875 M-22.5312 -64.125 C-22.5312 -26.397844410143186, -22.5312 11.329311179713628, -22.5312 106.875 M-22.5312 106.875 C-22.53123191721753 106.875, -22.531263834435055 106.875, -22.5313 106.875 M-22.5312 106.875 C-22.531225033514872 106.875, -22.53125006702974 106.875, -22.5313 106.875 M-22.5313 106.875 C-22.5313 71.03236855387514, -22.5313 35.18973710775029, -22.5313 -64.125 M-22.5313 106.875 C-22.5313 50.8614325682484, -22.5313 -5.152134863503207, -22.5313 -64.125" stroke="#9370DB" stroke-width="1.3" fill="none" stroke-dasharray="0 0"/></g><g class="divider"><path d="M61.2187 -64.125 L61.2188 -64.125 L61.2188 106.875 L61.2187 106.875" stroke="none" stroke-width="0" fill="#ECECFF" fill-rule="evenodd"/><path d="M61.2187 -64.125 C61.218724769397575 -64.125, 61.21874953879516 -64.125, 61.2188 -64.125 M61.2187 -64.125 C61.21872577036968 -64.125, 61.21875154073936 -64.125, 61.2188 -64.125 M61.2188 -64.125 C61.2188 -15.22475945329959, 61.2188 33.67548109340082, 61.2188 106.875 M61.2188 -64.125 C61.2188 -13.96934349410359, 61.2188 36.18631301179282, 61.2188 106.875 M61.2188 106.875 C61.218762828737795 106.875, 61.21872565747558 106.875, 61.2187 106.875 M61.2188 106.875 C61.21877565888075 106.875, 61.218751317761495 106.875, 61.2187 106.875 M61.2187 106.875 C61.2187 39.53167957291588, 61.2187 -27.811640854168246, 61.2187 -64.125 M61.2187 106.875 C61.2187 51.890355374128774, 61.2187 -3.0942892517424525, 61.2187 -64.125" stroke="#9370DB" stroke-width="1.3" fill="none" stroke-dasharray="0 0"/></g><g class="divider"><path d="M-104.359375 -64.12505 L-104.359375 -64.12495 L104.359375 -64.12495 L104.359375 -64.12505" stroke="none" stroke-width="0" fill="#ECECFF" fill-rule="evenodd"/><path d="M-104.359375 -64.12505 C-104.359375 -64.1250290251907, -104.359375 -64.12500805038141, -104.359375 -64.12495 M-104.359375 -64.12505 C-104.359375 -64.12501396317329, -104.359375 -64.12497792634659, -104.359375 -64.12495 M-104.359375 -64.12495 C-56.97852220266295 -64.12495, -9.597669405325902 -64.12495, 104.359375 -64.12495 M-104.359375 -64.12495 C-36.08044472423738 -64.12495, 32.19848555152524 -64.12495, 104.359375 -64.12495 M104.359375 -64.12495 C104.359375 -64.12497810194102, 104.359375 -64.12500620388204, 104.359375 -64.12505 M104.359375 -64.12495 C104.359375 -64.12498473726093, 104.359375 -64.12501947452188, 104.359375 -64.12505 M104.359375 -64.12505 C36.30941603638067 -64.12505, -31.740542927238664 -64.12505, -104.359375 -64.12505 M104.359375 -64.12505 C23.099609910076722 -64.12505, -58.160155179846555 -64.12505, -104.359375 -64.12505" stroke="#9370DB" stroke-width="1.3" fill="none" stroke-dasharray="0 0"/></g></g><g class="node default" id="my-svg-entity-Announcement-4" data-look="classic" transform="translate(595.546875, 136.25)"><g class="outer-path" style=""><path d="M-95.0703125 -128.25 L95.0703125 -128.25 L95.0703125 128.25 L-95.0703125 128.25" stroke="none" stroke-width="0" fill="#ECECFF"/><path d="M-95.0703125 -128.25 C-27.73227623951074 -128.25, 39.60576002097852 -128.25, 95.0703125 -128.25 M-95.0703125 -128.25 C-23.30801640927119 -128.25, 48.45427968145762 -128.25, 95.0703125 -128.25 M95.0703125 -128.25 C95.0703125 -63.8181976894972, 95.0703125 0.6136046210056065, 95.0703125 128.25 M95.0703125 -128.25 C95.0703125 -67.53674352499235, 95.0703125 -6.823487049984692, 95.0703125 128.25 M95.0703125 128.25 C24.650830430864062 128.25, -45.768651638271876 128.25, -95.0703125 128.25 M95.0703125 128.25 C23.32961463082127 128.25, -48.41108323835746 128.25, -95.0703125 128.25 M-95.0703125 128.25 C-95.0703125 62.75681311611197, -95.0703125 -2.7363737677760582, -95.0703125 -128.25 M-95.0703125 128.25 C-95.0703125 59.97072940763948, -95.0703125 -8.308541184721037, -95.0703125 -128.25" stroke="#9370DB" stroke-width="1.3" fill="none" stroke-dasharray="0 0"/></g><g style="" class="row-rect-odd"><path d="M-95.0703125 -85.5 L95.0703125 -85.5 L95.0703125 -42.75 L-95.0703125 -42.75" stroke="none" stroke-width="0" fill="hsl(240, 100%, 100%)"/><path d="M-95.0703125 -85.5 C-55.031811302667435 -85.5, -14.99331010533487 -85.5, 95.0703125 -85.5 M-95.0703125 -85.5 C-31.931705342531266 -85.5, 31.206901814937467 -85.5, 95.0703125 -85.5 M95.0703125 -85.5 C95.0703125 -71.44948995249443, 95.0703125 -57.39897990498886, 95.0703125 -42.75 M95.0703125 -85.5 C95.0703125 -73.91080474194905, 95.0703125 -62.321609483898094, 95.0703125 -42.75 M95.0703125 -42.75 C55.239526980879425 -42.75, 15.40874146175885 -42.75, -95.0703125 -42.75 M95.0703125 -42.75 C20.108242793007875 -42.75, -54.85382691398425 -42.75, -95.0703125 -42.75 M-95.0703125 -42.75 C-95.0703125 -54.18864520244508, -95.0703125 -65.62729040489016, -95.0703125 -85.5 M-95.0703125 -42.75 C-95.0703125 -51.88547596194821, -95.0703125 -61.02095192389642, -95.0703125 -85.5" stroke="#9370DB" stroke-width="1.3" fill="none" stroke-dasharray="0 0"/></g><g style="" class="row-rect-even"><path d="M-95.0703125 -42.75 L95.0703125 -42.75 L95.0703125 0 L-95.0703125 0" stroke="none" stroke-width="0" fill="hsl(240, 100%, 97.2745098039%)"/><path d="M-95.0703125 -42.75 C-47.06038935519486 -42.75, 0.9495337896102853 -42.75, 95.0703125 -42.75 M-95.0703125 -42.75 C-20.474942261164102 -42.75, 54.120427977671795 -42.75, 95.0703125 -42.75 M95.0703125 -42.75 C95.0703125 -29.647936549249543, 95.0703125 -16.545873098499086, 95.0703125 0 M95.0703125 -42.75 C95.0703125 -27.460432258917933, 95.0703125 -12.170864517835863, 95.0703125 0 M95.0703125 0 C35.174912017712 0, -24.720488464575993 0, -95.0703125 0 M95.0703125 0 C46.99537853344265 0, -1.079555433114706 0, -95.0703125 0 M-95.0703125 0 C-95.0703125 -13.188825414632202, -95.0703125 -26.377650829264404, -95.0703125 -42.75 M-95.0703125 0 C-95.0703125 -10.162545702212133, -95.0703125 -20.325091404424267, -95.0703125 -42.75" stroke="#9370DB" stroke-width="1.3" fill="none" stroke-dasharray="0 0"/></g><g style="" class="row-rect-odd"><path d="M-95.0703125 0 L95.0703125 0 L95.0703125 42.75 L-95.0703125 42.75" stroke="none" stroke-width="0" fill="hsl(240, 100%, 100%)"/><path d="M-95.0703125 0 C-48.4516968314473 0, -1.8330811628946009 0, 95.0703125 0 M-95.0703125 0 C-23.373781608660792 0, 48.322749282678416 0, 95.0703125 0 M95.0703125 0 C95.0703125 9.431952515040262, 95.0703125 18.863905030080524, 95.0703125 42.75 M95.0703125 0 C95.0703125 12.724218490194872, 95.0703125 25.448436980389744, 95.0703125 42.75 M95.0703125 42.75 C53.39719391377028 42.75, 11.724075327540561 42.75, -95.0703125 42.75 M95.0703125 42.75 C45.36984724344871 42.75, -4.33061801310258 42.75, -95.0703125 42.75 M-95.0703125 42.75 C-95.0703125 33.31093970697801, -95.0703125 23.871879413956027, -95.0703125 0 M-95.0703125 42.75 C-95.0703125 26.019442615217958, -95.0703125 9.288885230435916, -95.0703125 0" stroke="#9370DB" stroke-width="1.3" fill="none" stroke-dasharray="0 0"/></g><g style="" class="row-rect-even"><path d="M-95.0703125 42.75 L95.0703125 42.75 L95.0703125 85.5 L-95.0703125 85.5" stroke="none" stroke-width="0" fill="hsl(240, 100%, 97.2745098039%)"/><path d="M-95.0703125 42.75 C-56.52986853391111 42.75, -17.989424567822226 42.75, 95.0703125 42.75 M-95.0703125 42.75 C-49.87504704896134 42.75, -4.679781597922684 42.75, 95.0703125 42.75 M95.0703125 42.75 C95.0703125 52.91004599015203, 95.0703125 63.070091980304056, 95.0703125 85.5 M95.0703125 42.75 C95.0703125 52.63440907727526, 95.0703125 62.518818154550516, 95.0703125 85.5 M95.0703125 85.5 C28.631612238597825 85.5, -37.80708802280435 85.5, -95.0703125 85.5 M95.0703125 85.5 C39.428745814885445 85.5, -16.21282087022911 85.5, -95.0703125 85.5 M-95.0703125 85.5 C-95.0703125 74.19270655980539, -95.0703125 62.885413119610774, -95.0703125 42.75 M-95.0703125 85.5 C-95.0703125 76.55509992841122, -95.0703125 67.61019985682245, -95.0703125 42.75" stroke="#9370DB" stroke-width="1.3" fill="none" stroke-dasharray="0 0"/></g><g style="" class="row-rect-odd"><path d="M-95.0703125 85.5 L95.0703125 85.5 L95.0703125 128.25 L-95.0703125 128.25" stroke="none" stroke-width="0" fill="hsl(240, 100%, 100%)"/><path d="M-95.0703125 85.5 C-52.226691244305954 85.5, -9.383069988611908 85.5, 95.0703125 85.5 M-95.0703125 85.5 C-47.449222005434706 85.5, 0.1718684891305884 85.5, 95.0703125 85.5 M95.0703125 85.5 C95.0703125 100.41665260655111, 95.0703125 115.33330521310222, 95.0703125 128.25 M95.0703125 85.5 C95.0703125 97.82288987456036, 95.0703125 110.14577974912072, 95.0703125 128.25 M95.0703125 128.25 C25.77432889422107 128.25, -43.52165471155786 128.25, -95.0703125 128.25 M95.0703125 128.25 C27.733774257152618 128.25, -39.602763985694764 128.25, -95.0703125 128.25 M-95.0703125 128.25 C-95.0703125 116.79730320161218, -95.0703125 105.34460640322438, -95.0703125 85.5 M-95.0703125 128.25 C-95.0703125 111.42148628879559, -95.0703125 94.5929725775912, -95.0703125 85.5" stroke="#9370DB" stroke-width="1.3" fill="none" stroke-dasharray="0 0"/></g><g class="label name" transform="translate(-53.3671875, -118.875)" style=""><foreignObject width="106.734375" height="24"><div xmlns="http://www.w3.org/1999/xhtml" style="display: table-cell; white-space: nowrap; line-height: 1.5; max-width: 199px; text-align: start;"><span class="nodeLabel"><p>Announcement</p></span></div></foreignObject></g><g class="label attribute-type" transform="translate(-82.5703125, -76.125)" style=""><foreignObject width="41.59375" height="24"><div xmlns="http://www.w3.org/1999/xhtml" style="display: table-cell; white-space: nowrap; line-height: 1.5; max-width: 139px; text-align: start;"><span class="nodeLabel"><p>String</p></span></div></foreignObject></g><g class="label attribute-name" transform="translate(-15.9765625, -76.125)" style=""><foreignObject width="13.484375" height="24"><div xmlns="http://www.w3.org/1999/xhtml" style="display: table-cell; white-space: nowrap; line-height: 1.5; max-width: 113px; text-align: start;"><span class="nodeLabel"><p>id</p></span></div></foreignObject></g><g class="label attribute-keys" transform="translate(64.4296875, -76.125)" style=""><foreignObject width="18.140625" height="24"><div xmlns="http://www.w3.org/1999/xhtml" style="display: table-cell; white-space: nowrap; line-height: 1.5; max-width: 122px; text-align: start;"><span class="nodeLabel"><p>PK</p></span></div></foreignObject></g><g class="label attribute-comment" transform="translate(107.5703125, -76.125)" style=""><foreignObject width="0" height="0"><div xmlns="http://www.w3.org/1999/xhtml" style="display: table-cell; white-space: nowrap; line-height: 1.5; max-width: 100px; text-align: start;"><span class="nodeLabel"></span></div></foreignObject></g><g class="label attribute-type" transform="translate(-82.5703125, -33.375)" style=""><foreignObject width="41.59375" height="24"><div xmlns="http://www.w3.org/1999/xhtml" style="display: table-cell; white-space: nowrap; line-height: 1.5; max-width: 139px; text-align: start;"><span class="nodeLabel"><p>String</p></span></div></foreignObject></g><g class="label attribute-name" transform="translate(-15.9765625, -33.375)" style=""><foreignObject width="30.703125" height="24"><div xmlns="http://www.w3.org/1999/xhtml" style="display: table-cell; white-space: nowrap; line-height: 1.5; max-width: 126px; text-align: start;"><span class="nodeLabel"><p>title</p></span></div></foreignObject></g><g class="label attribute-keys" transform="translate(64.4296875, -33.375)" style=""><foreignObject width="0" height="0"><div xmlns="http://www.w3.org/1999/xhtml" style="display: table-cell; white-space: nowrap; line-height: 1.5; max-width: 100px; text-align: start;"><span class="nodeLabel"></span></div></foreignObject></g><g class="label attribute-comment" transform="translate(107.5703125, -33.375)" style=""><foreignObject width="0" height="0"><div xmlns="http://www.w3.org/1999/xhtml" style="display: table-cell; white-space: nowrap; line-height: 1.5; max-width: 100px; text-align: start;"><span class="nodeLabel"></span></div></foreignObject></g><g class="label attribute-type" transform="translate(-82.5703125, 9.375)" style=""><foreignObject width="41.59375" height="24"><div xmlns="http://www.w3.org/1999/xhtml" style="display: table-cell; white-space: nowrap; line-height: 1.5; max-width: 139px; text-align: start;"><span class="nodeLabel"><p>String</p></span></div></foreignObject></g><g class="label attribute-name" transform="translate(-15.9765625, 9.375)" style=""><foreignObject width="55.40625" height="24"><div xmlns="http://www.w3.org/1999/xhtml" style="display: table-cell; white-space: nowrap; line-height: 1.5; max-width: 148px; text-align: start;"><span class="nodeLabel"><p>content</p></span></div></foreignObject></g><g class="label attribute-keys" transform="translate(64.4296875, 9.375)" style=""><foreignObject width="0" height="0"><div xmlns="http://www.w3.org/1999/xhtml" style="display: table-cell; white-space: nowrap; line-height: 1.5; max-width: 100px; text-align: start;"><span class="nodeLabel"></span></div></foreignObject></g><g class="label attribute-comment" transform="translate(107.5703125, 9.375)" style=""><foreignObject width="0" height="0"><div xmlns="http://www.w3.org/1999/xhtml" style="display: table-cell; white-space: nowrap; line-height: 1.5; max-width: 100px; text-align: start;"><span class="nodeLabel"></span></div></foreignObject></g><g class="label attribute-type" transform="translate(-82.5703125, 52.125)" style=""><foreignObject width="41.59375" height="24"><div xmlns="http://www.w3.org/1999/xhtml" style="display: table-cell; white-space: nowrap; line-height: 1.5; max-width: 139px; text-align: start;"><span class="nodeLabel"><p>String</p></span></div></foreignObject></g><g class="label attribute-name" transform="translate(-15.9765625, 52.125)" style=""><foreignObject width="53.296875" height="24"><div xmlns="http://www.w3.org/1999/xhtml" style="display: table-cell; white-space: nowrap; line-height: 1.5; max-width: 150px; text-align: start;"><span class="nodeLabel"><p>priority</p></span></div></foreignObject></g><g class="label attribute-keys" transform="translate(64.4296875, 52.125)" style=""><foreignObject width="0" height="0"><div xmlns="http://www.w3.org/1999/xhtml" style="display: table-cell; white-space: nowrap; line-height: 1.5; max-width: 100px; text-align: start;"><span class="nodeLabel"></span></div></foreignObject></g><g class="label attribute-comment" transform="translate(107.5703125, 52.125)" style=""><foreignObject width="0" height="0"><div xmlns="http://www.w3.org/1999/xhtml" style="display: table-cell; white-space: nowrap; line-height: 1.5; max-width: 100px; text-align: start;"><span class="nodeLabel"></span></div></foreignObject></g><g class="label attribute-type" transform="translate(-82.5703125, 94.875)" style=""><foreignObject width="41.59375" height="24"><div xmlns="http://www.w3.org/1999/xhtml" style="display: table-cell; white-space: nowrap; line-height: 1.5; max-width: 139px; text-align: start;"><span class="nodeLabel"><p>String</p></span></div></foreignObject></g><g class="label attribute-name" transform="translate(-15.9765625, 94.875)" style=""><foreignObject width="47.046875" height="24"><div xmlns="http://www.w3.org/1999/xhtml" style="display: table-cell; white-space: nowrap; line-height: 1.5; max-width: 142px; text-align: start;"><span class="nodeLabel"><p>author</p></span></div></foreignObject></g><g class="label attribute-keys" transform="translate(64.4296875, 94.875)" style=""><foreignObject width="0" height="0"><div xmlns="http://www.w3.org/1999/xhtml" style="display: table-cell; white-space: nowrap; line-height: 1.5; max-width: 100px; text-align: start;"><span class="nodeLabel"></span></div></foreignObject></g><g class="label attribute-comment" transform="translate(107.5703125, 94.875)" style=""><foreignObject width="0" height="0"><div xmlns="http://www.w3.org/1999/xhtml" style="display: table-cell; white-space: nowrap; line-height: 1.5; max-width: 100px; text-align: start;"><span class="nodeLabel"></span></div></foreignObject></g><g class="divider"><path d="M-95.0703125 -85.50005 L-95.0703125 -85.49995 L95.0703125 -85.49995 L95.0703125 -85.50005" stroke="none" stroke-width="0" fill="#ECECFF" fill-rule="evenodd"/><path d="M-95.0703125 -85.50005 C-95.0703125 -85.50002651102568, -95.0703125 -85.50000302205135, -95.0703125 -85.49995 M-95.0703125 -85.50005 C-95.0703125 -85.50002874416805, -95.0703125 -85.5000074883361, -95.0703125 -85.49995 M-95.0703125 -85.49995 C-40.749620336570274 -85.49995, 13.571071826859452 -85.49995, 95.0703125 -85.49995 M-95.0703125 -85.49995 C-39.03573672036842 -85.49995, 16.99883905926316 -85.49995, 95.0703125 -85.49995 M95.0703125 -85.49995 C95.0703125 -85.49998035495692, 95.0703125 -85.50001070991384, 95.0703125 -85.50005 M95.0703125 -85.49995 C95.0703125 -85.49997170274554, 95.0703125 -85.49999340549108, 95.0703125 -85.50005 M95.0703125 -85.50005 C49.3529728001522 -85.50005, 3.6356331003044033 -85.50005, -95.0703125 -85.50005 M95.0703125 -85.50005 C19.046085220534195 -85.50005, -56.97814205893161 -85.50005, -95.0703125 -85.50005" stroke="#9370DB" stroke-width="1.3" fill="none" stroke-dasharray="0 0"/></g><g class="divider"><path d="M-28.4766125 -85.5 L-28.4765125 -85.5 L-28.4765125 128.25 L-28.4766125 128.25" stroke="none" stroke-width="0" fill="#ECECFF" fill-rule="evenodd"/><path d="M-28.4766125 -85.5 C-28.476592398846115 -85.5, -28.476572297692226 -85.5, -28.4765125 -85.5 M-28.4766125 -85.5 C-28.47658423197024 -85.5, -28.476555963940474 -85.5, -28.4765125 -85.5 M-28.4765125 -85.5 C-28.4765125 -25.658727421181986, -28.4765125 34.18254515763603, -28.4765125 128.25 M-28.4765125 -85.5 C-28.4765125 -9.787520549005293, -28.4765125 65.92495890198941, -28.4765125 128.25 M-28.4765125 128.25 C-28.476545469467695 128.25, -28.476578438935388 128.25, -28.4766125 128.25 M-28.4765125 128.25 C-28.476543225015348 128.25, -28.476573950030698 128.25, -28.4766125 128.25 M-28.4766125 128.25 C-28.4766125 53.32625435268666, -28.4766125 -21.59749129462668, -28.4766125 -85.5 M-28.4766125 128.25 C-28.4766125 56.56067008790295, -28.4766125 -15.128659824194102, -28.4766125 -85.5" stroke="#9370DB" stroke-width="1.3" fill="none" stroke-dasharray="0 0"/></g><g class="divider"><path d="M51.9296375 -85.5 L51.9297375 -85.5 L51.9297375 128.25 L51.9296375 128.25" stroke="none" stroke-width="0" fill="#ECECFF" fill-rule="evenodd"/><path d="M51.9296375 -85.5 C51.9296755370307 -85.5, 51.929713574061395 -85.5, 51.9297375 -85.5 M51.9296375 -85.5 C51.92965930224049 -85.5, 51.92968110448097 -85.5, 51.9297375 -85.5 M51.9297375 -85.5 C51.9297375 -17.131281670459387, 51.9297375 51.237436659081226, 51.9297375 128.25 M51.9297375 -85.5 C51.9297375 -0.9919783240810887, 51.9297375 83.51604335183782, 51.9297375 128.25 M51.9297375 128.25 C51.92969799107626 128.25, 51.92965848215252 128.25, 51.9296375 128.25 M51.9297375 128.25 C51.92970948980808 128.25, 51.92968147961616 128.25, 51.9296375 128.25 M51.9296375 128.25 C51.9296375 83.48301644135464, 51.9296375 38.71603288270927, 51.9296375 -85.5 M51.9296375 128.25 C51.9296375 61.97932536622753, 51.9296375 -4.291349267544945, 51.9296375 -85.5" stroke="#9370DB" stroke-width="1.3" fill="none" stroke-dasharray="0 0"/></g><g class="divider"><path d="M-95.0703125 -85.50005 L-95.0703125 -85.49995 L95.0703125 -85.49995 L95.0703125 -85.50005" stroke="none" stroke-width="0" fill="#ECECFF" fill-rule="evenodd"/><path d="M-95.0703125 -85.50005 C-95.0703125 -85.50001565454569, -95.0703125 -85.49998130909137, -95.0703125 -85.49995 M-95.0703125 -85.50005 C-95.0703125 -85.50001577061428, -95.0703125 -85.49998154122856, -95.0703125 -85.49995 M-95.0703125 -85.49995 C-20.144678348644376 -85.49995, 54.78095580271125 -85.49995, 95.0703125 -85.49995 M-95.0703125 -85.49995 C-21.778712447138744 -85.49995, 51.51288760572251 -85.49995, 95.0703125 -85.49995 M95.0703125 -85.49995 C95.0703125 -85.49998785127258, 95.0703125 -85.50002570254517, 95.0703125 -85.50005 M95.0703125 -85.49995 C95.0703125 -85.49998246249467, 95.0703125 -85.50001492498933, 95.0703125 -85.50005 M95.0703125 -85.50005 C43.27571948923732 -85.50005, -8.518873521525364 -85.50005, -95.0703125 -85.50005 M95.0703125 -85.50005 C31.985950729570206 -85.50005, -31.098411040859588 -85.50005, -95.0703125 -85.50005" stroke="#9370DB" stroke-width="1.3" fill="none" stroke-dasharray="0 0"/></g></g></g></g></g><defs><filter id="my-svg-drop-shadow" height="130%" width="130%"><feDropShadow dx="4" dy="4" stdDeviation="0" flood-opacity="0.06" flood-color="#000000"/></filter></defs><defs><filter id="my-svg-drop-shadow-small" height="150%" width="150%"><feDropShadow dx="2" dy="2" stdDeviation="0" flood-opacity="0.06" flood-color="#000000"/></filter></defs></svg>